PathFileType	4	(X/Y/Z)	s08c0401.trc
DataRate	CameraRate	NumFrames	NumMarkers	Units	OrigDataRate	OrigDataStartFrame	OrigNumFrames
200	200	5	50	mm	200	250	2000
Frame#	Time	racr			lacr			c7			jug			rlel			rdr			llel			ldr			s2			lic			ric			lasi			rasi			rpsi			lpsi			rgt			lgt			rth1			rth2			rth3			rth4			rlfc			rmfc			rsh1			rsh2			rsh3			rsh4			rlmal			rmmal			rcal			rtoe			rmt5			lth1			lth2			lth4			lth3			llfc			lmfc			llmal			lmmal			lcal			lmt5			lsh1			lsh2			lsh3			lsh4			ltoe			SBIKE			LBIKE			RBIKE			
		X1	Y1	Z1	X2	Y2	Z2	X3	Y3	Z3	X4	Y4	Z4	X5	Y5	Z5	X6	Y6	Z6	X7	Y7	Z7	X8	Y8	Z8	X9	Y9	Z9	X10	Y10	Z10	X11	Y11	Z11	X12	Y12	Z12	X13	Y13	Z13	X14	Y14	Z14	X15	Y15	Z15	X16	Y16	Z16	X17	Y17	Z17	X18	Y18	Z18	X19	Y19	Z19	X20	Y20	Z20	X21	Y21	Z21	X22	Y22	Z22	X23	Y23	Z23	X24	Y24	Z24	X25	Y25	Z25	X26	Y26	Z26	X27	Y27	Z27	X28	Y28	Z28	X29	Y29	Z29	X30	Y30	Z30	X31	Y31	Z31	X32	Y32	Z32	X33	Y33	Z33	X34	Y34	Z34	X35	Y35	Z35	X36	Y36	Z36	X37	Y37	Z37	X38	Y38	Z38	X39	Y39	Z39	X40	Y40	Z40	X41	Y41	Z41	X42	Y42	Z42	X43	Y43	Z43	X44	Y44	Z44	X45	Y45	Z45	X46	Y46	Z46	X47	Y47	Z47	X48	Y48	Z48	X49	Y49	Z49	X50	Y50	Z50	
250	1.2500	596.872704	1322.003095	-77.346127	610.219736	1356.851359	-381.930392	567.166352	1399.383929	-229.953185	540.638508	1245.443867	-245.423056	553.843852	1080.189939	63.304254	777.145175	940.110607	-60.148053	569.908255	1101.782256	-523.060828	775.716839	938.600321	-441.656819	-14.878765	1231.117507	-241.955521	152.376762	1191.268671	-394.301488	155.978580	1192.775658	-76.386971	160.919093	1137.389731	-359.485528	166.344413	1135.852567	-116.404828	30.321383	1260.758994	-187.589670	30.530264	1265.719704	-284.947454	57.450823	1113.656708	-47.015178	68.383440	1104.697092	-435.725330	169.394249	984.076853	-47.144550	244.665744	937.099439	-51.364922	285.081705	860.691044	-63.958279	270.749363	962.073924	-60.622826	365.177524	772.349733	-79.654417	342.355758	751.802873	-185.893762	328.333262	644.415679	-44.670430	352.662629	558.614232	-58.159849	329.277672	474.998085	-62.979479	380.118247	561.852817	-88.034789	321.320201	354.607759	-68.312446	333.527663	377.359225	-157.456089	249.841926	311.693121	-112.675488	544.690597	347.306541	-109.767476	462.624080	302.251636	-43.568546	144.926913	993.208040	-443.377142	216.593311	943.061030	-442.159037	244.105103	965.650325	-430.568059	253.393315	861.932467	-443.701257	307.753135	746.259219	-416.683660	316.167192	731.297292	-317.241165	25.377394	445.178148	-393.841984	52.313351	453.633342	-316.376503	-49.595260	442.386754	-351.998131	129.845705	329.839818	-420.909921	226.927803	647.893200	-433.438224	183.124985	578.317604	-408.412637	108.934020	531.034065	-407.865526	200.955948	569.075235	-374.212774	218.208765	335.365681	-354.674507	-140.456516	942.039902	-231.114257	17.515241	79.583433	-427.943608	17.464571	79.774587	-29.697690	
251	1.2550	601.482912	1318.685428	-77.535190	613.650667	1354.581661	-381.899886	571.655989	1396.999764	-229.722523	544.489781	1243.171673	-245.559897	554.662061	1077.541167	63.619853	776.980016	939.338107	-60.580112	570.022723	1100.348473	-523.206164	775.573933	937.842788	-441.537696	-11.679201	1231.733401	-239.658188	155.553309	1191.722339	-393.068891	160.791248	1190.415418	-75.334263	164.616078	1138.307482	-358.382948	170.464596	1133.694520	-115.845796	34.762676	1260.346654	-185.203052	34.548286	1266.116365	-282.915897	61.607117	1111.971229	-46.290799	72.016147	1106.874389	-435.002555	171.251470	980.645945	-46.681334	245.716663	932.397925	-51.044219	285.339674	855.255486	-63.774138	272.187066	956.959806	-60.296903	363.927182	766.165160	-79.249323	341.058458	746.584097	-186.504135	327.224122	638.119365	-44.414571	351.374985	552.217693	-58.165020	328.195443	468.640706	-62.882832	378.955413	555.584129	-88.087944	320.487998	348.316698	-68.180642	332.522300	371.026283	-157.458594	249.537899	304.930004	-112.987621	544.134541	340.573540	-109.570567	461.878915	295.610292	-43.477494	148.893179	996.295376	-443.748186	220.979773	946.717499	-443.018250	248.297728	969.377436	-431.106500	258.267555	865.908397	-444.554455	313.567541	750.323934	-418.111988	329.234229	738.911827	-321.968230	28.034379	452.515524	-393.951616	62.994023	461.508246	-311.559906	-46.917909	450.767147	-352.027913	131.040460	335.908480	-420.956540	232.000465	652.713742	-434.464365	188.911701	586.236940	-413.071016	112.534877	537.436869	-408.383466	205.173935	574.217286	-375.148634	219.667206	340.322498	-354.781699	-140.352702	942.070291	-231.033821	17.524784	79.589988	-427.963779	17.466870	79.766515	-29.684717	
252	1.2600	605.416355	1314.945234	-79.314621	617.048711	1352.698580	-382.214843	576.114545	1394.789870	-229.403501	548.442016	1241.114232	-245.716877	555.215618	1074.897636	63.691633	776.868958	938.564546	-61.026050	570.456690	1099.000745	-523.259320	775.478128	937.038728	-441.229193	-7.690749	1231.858214	-237.394782	158.910131	1192.183416	-391.585152	165.722081	1188.002334	-74.268695	168.136143	1138.742455	-357.210013	174.753278	1131.506454	-115.146829	39.278620	1259.456364	-182.866955	38.752294	1266.378499	-280.722788	65.744399	1110.164332	-45.631878	75.770215	1109.018803	-434.226288	173.292429	977.561977	-46.025489	246.915256	927.908883	-50.740064	285.319511	850.333062	-63.467213	273.846070	952.177487	-60.155211	362.780203	760.220919	-79.043501	340.786474	740.670349	-185.524816	326.273640	631.972562	-44.114821	350.418877	546.163370	-58.043657	327.344117	462.663570	-62.731658	377.681536	549.576003	-87.700886	319.739267	342.132802	-68.035643	331.751441	364.775247	-157.391811	248.716584	299.127835	-112.881819	543.702308	334.118007	-109.173668	461.081072	288.981042	-43.460942	153.083401	999.391480	-444.074852	225.738798	950.795386	-444.250898	252.553024	972.892884	-430.851260	263.592214	869.981999	-445.857722	319.566866	754.421093	-419.693485	341.333582	746.389330	-325.920206	31.288844	460.544522	-395.210261	65.937414	468.612735	-311.687594	-44.029993	459.178380	-352.067606	132.458010	341.995986	-421.033528	237.263680	657.499902	-435.498120	193.240272	591.574062	-413.919694	115.857861	544.029162	-408.967507	209.058647	578.475531	-374.441796	221.218113	345.233432	-354.925046	-140.215356	942.099522	-230.947373	17.524336	79.591688	-427.944373	17.478535	79.759281	-29.693527	
253	1.2650	609.996288	1312.176768	-79.456688	620.241296	1350.786654	-382.417450	580.599497	1392.792554	-229.056242	552.499426	1239.293208	-245.911666	555.541252	1072.414473	63.528653	776.634508	937.930603	-61.521255	571.191338	1097.796118	-523.286042	775.502503	936.096718	-440.504823	-3.409013	1231.843087	-235.182119	162.352871	1192.767400	-390.114607	170.673474	1185.643530	-73.207176	171.598989	1138.891665	-356.129302	179.038759	1129.489704	-114.385107	43.880914	1258.796767	-180.671711	43.021906	1266.647104	-278.390484	69.977671	1108.309420	-44.884359	79.824482	1111.284869	-433.397069	175.434399	974.458084	-45.424426	248.332197	923.812754	-50.409850	285.275321	845.527334	-63.189590	275.551502	947.710838	-59.869014	361.771658	754.457240	-78.812566	338.079937	734.999077	-186.087106	325.664883	626.215739	-43.702458	349.616731	540.349634	-57.958208	326.704604	456.830078	-62.537339	377.445838	543.363408	-88.309651	318.973725	336.395572	-67.785375	331.221339	358.673397	-157.288846	247.828204	293.843345	-112.702851	542.701965	326.500549	-109.564090	460.066513	282.337525	-43.425531	157.360069	1002.525515	-444.497406	230.533988	954.647680	-445.050012	257.181587	976.890253	-431.384497	269.211609	874.415478	-447.715518	325.523610	758.630861	-421.292375	351.302121	752.612441	-328.823995	34.348474	467.930543	-395.325669	68.867947	475.983579	-311.803901	-41.172019	467.533961	-352.077271	133.840391	348.504637	-421.616863	242.617715	662.276080	-436.639286	197.850803	596.983133	-414.920107	119.796053	550.450309	-409.517044	213.794647	583.763323	-375.755006	222.925844	349.943609	-354.959566	-140.122643	942.133996	-231.023713	17.575804	79.471912	-427.857705	17.504688	79.753662	-29.700379	
254	1.2700	614.547718	1309.724655	-79.522865	623.310292	1349.356931	-382.860755	585.081460	1391.049638	-228.696981	556.736481	1237.923260	-246.208264	555.632825	1070.119555	63.181687	776.380506	937.335888	-62.052761	572.234655	1096.666597	-523.321130	775.488883	935.309842	-439.955811	1.573760	1231.502251	-233.388835	165.893795	1193.336882	-388.329100	175.595365	1183.026493	-71.977090	175.320362	1139.165673	-354.824681	183.443073	1127.304435	-113.768203	48.438320	1258.092355	-178.281050	47.387729	1266.815387	-276.149030	74.142693	1106.473647	-44.174014	84.118270	1113.557838	-432.480399	177.668937	971.571742	-44.798157	249.872374	919.938048	-49.988341	285.116010	841.118609	-62.984389	277.390802	943.394820	-59.594813	361.066940	749.071994	-78.504964	336.868836	729.734328	-185.749224	325.176091	620.656555	-43.225855	349.084028	534.810115	-57.688901	326.116550	451.268377	-62.325482	376.834182	537.859641	-88.035933	318.103406	330.851096	-67.612851	330.190116	353.241788	-157.074560	246.614400	288.829134	-112.421104	541.899535	319.468973	-109.322877	459.001535	275.846950	-43.220394	162.019666	1005.805175	-444.694471	235.829264	959.159260	-447.263261	261.940009	980.907774	-431.725658	274.696292	878.782973	-449.324836	332.011500	762.625851	-422.890840	357.976777	756.463863	-330.406347	37.717337	475.212946	-395.575229	72.094742	483.024210	-311.831762	-37.382065	475.700130	-352.085867	135.876681	354.270473	-421.397142	247.532916	667.553565	-438.264380	202.459200	602.324864	-415.736855	124.392096	557.557535	-411.631550	218.427373	588.765151	-376.490532	224.864355	354.789411	-355.080403	-139.903952	942.158658	-230.948072	17.596564	79.481282	-427.845966	17.492490	79.764954	-29.706831	
